Coordinates
version=1
nRows=6
nColumns=107
inDegrees=yes

Units are S.I. units (second, meters, Newtons, ...)
If the header above contains a line with 'inDegrees', this indicates whether rotational values are in degrees (yes) or radians (no).

endheader
time	sternoclavicular_r2	sternoclavicular_r3	unrotscap_r3	unrotscap_r2	acromioclavicular_r2	acromioclavicular_r3	acromioclavicular_r1	unrothum_r1	unrothum_r3	unrothum_r2	elv_angle	shoulder_elv	shoulder1_r2	shoulder_rot	elbow_flexion	pro_sup	deviation	flexion	proximal_distal_r1	proximal_distal_r3	cmc_flexion	cmc_abduction	mp_flexion	ip_flexion	mcp2_flexion	mcp2_abduction	pm2_flexion	md2_flexion	mcp3_flexion	mcp3_abduction	pm3_flexion	md3_flexion	mcp4_flexion	mcp4_abduction	pm4_flexion	md4_flexion	mcp5_flexion	mcp5_abduction	pm5_flexion	md5_flexion	bicpt_tx	bicpt_ty	bicpt_tz	bicpt2_tx	bicpt2_ty	bicpt2_tz	ptpt_tx	ptpt_ty	ptpt_tz	FCUpt_tx	FCUpt_ty	FCUpt_tz	EDCpt_tx	EDCpt_ty	EDCpt_tz	APLpt_tx	APLpt_ty	APLpt_tz	FPLpt_tx	FPLpt_ty	FPLpt_tz	FPLpt2_tx	FPLpt2_ty	FPLpt2_tz	PEC1pt2_tx	PEC1pt2_ty	PEC1pt2_tz	PEC1pt3_tx	PEC1pt3_ty	PEC1pt3_tz	PEC2pt2_tx	PEC2pt2_ty	PEC2pt2_tz	PEC2pt3_tx	PEC2pt3_ty	PEC2pt3_tz	PEC3pt2_tx	PEC3pt2_ty	PEC3pt2_tz	PEC3pt3_tx	PEC3pt3_ty	PEC3pt3_tz	DELT2pt2a_tx	DELT2pt2a_ty	DELT2pt2a_tz	DELT2pt2_tx	DELT2pt2_ty	DELT2pt2_tz	LAT1pt2_tx	LAT1pt2_ty	LAT1pt2_tz	LAT1pt3_tx	LAT1pt3_ty	LAT1pt3_tz	LAT2pt2_tx	LAT2pt2_ty	LAT2pt2_tz	LAT2pt3_tx	LAT2pt3_ty	LAT2pt3_tz	LAT3pt2_tx	LAT3pt2_ty	LAT3pt2_tz	LAT3pt3_tx	LAT3pt3_ty	LAT3pt3_tz
      1.20000000	     -0.32567128	      0.13793898	     -0.13793898	      0.32567128	     -0.06594181	      0.53291850	      0.23954320	     -0.23954320	     -0.53291850	      0.06594181	     99.02511464	     77.10556926	     -1.72831429	    -21.15651026	     28.96220757	     43.00062015	      0.18685473	     -0.09478661	      0.22501026	     -0.04739331	     28.64482196	    -21.63205951	      0.48591104	     -0.85069003	     -2.37200995	      7.19553358	     17.34683277	    -30.03823049	     -6.90580241	      4.86477617	      7.94005198	     12.46853519	     -9.09517964	     -4.90930084	     -0.42162978	     25.48678246	    -19.61677347	    -13.47973915	      6.23481943	      5.15701358	      0.00085798	     -0.03091951	     -0.00483469	      0.01656971	     -0.01806773	     -0.00714340	      0.00437274	     -0.06695447	     -0.00351393	      0.00808373	     -0.18343137	     -0.00040433	     -0.00516006	      0.00150369	      0.00012244	      0.00008946	      0.00003578	      0.00017891	      0.00011450	      0.00034351	      0.00019322	     -0.00000654	     -0.00026028	     -0.00031234	      0.00252735	      0.00886715	      0.00616845	     -0.00826744	      0.01996179	     -0.01893372	      0.00252735	      0.00886715	      0.00616845	      0.00055687	      0.01850535	     -0.00972388	      0.00398331	      0.00493091	      0.01605345	      0.00000000	      0.00795237	      0.00000000	     -0.00723936	     -0.03345528	     -0.00655805	      0.01443468	     -0.00046772	     -0.00371013	     -0.00089957	      0.01507844	     -0.00616845	      0.00248451	      0.02176092	     -0.01799131	     -0.00603994	      0.01306512	     -0.00552590	     -0.01259392	      0.02758668	     -0.03088509	     -0.02364573	      0.01460723	     -0.00741071	     -0.01567815	      0.03187033	     -0.03859565
      1.23333333	     -0.32465531	      0.13750867	     -0.13750867	      0.32465531	     -0.06573610	      0.53125600	      0.23879592	     -0.23879592	     -0.53125600	      0.06573610	     99.18918958	     76.86503014	     -1.73117794	    -22.09138412	     29.19662645	     46.68950065	      0.22154226	     -0.08760973	      0.26049158	     -0.04380487	     29.43228034	    -21.72424434	     -4.10316053	      0.81399085	      1.37504141	      7.24656168	     18.74464326	    -24.28393549	     -2.01955792	      4.71765152	      8.71843390	     12.03506118	     -3.99316478	     -4.59929837	      3.02796901	     21.78379280	    -12.33482231	    -13.48946782	      5.10906160	      5.09933304	      0.00086573	     -0.03094638	     -0.00483901	      0.01653572	     -0.01813141	     -0.00672454	      0.00410017	     -0.06713072	     -0.00381109	      0.00846063	     -0.18334955	     -0.00041706	     -0.00560273	      0.00165927	      0.00008627	      0.00008321	      0.00003328	      0.00016642	      0.00010651	      0.00031953	      0.00017973	     -0.00000775	     -0.00025456	     -0.00030547	      0.00251947	      0.00883949	      0.00614921	     -0.00824165	      0.01989952	     -0.01887465	      0.00251947	      0.00883949	      0.00614921	      0.00055514	      0.01844762	     -0.00969354	      0.00397428	      0.00491553	      0.01603166	      0.00000000	      0.00790248	      0.00000000	     -0.00721678	     -0.03335091	     -0.00651663	      0.01495384	     -0.00049702	     -0.00405818	     -0.00089676	      0.01503140	     -0.00614921	      0.00247676	      0.02169304	     -0.01793519	     -0.00602110	      0.01302436	     -0.00550867	     -0.01255463	      0.02750062	     -0.03078874	     -0.02357196	      0.01456167	     -0.00738759	     -0.01562924	      0.03177091	     -0.03847525
      1.26666667	     -0.32477020	      0.13755733	     -0.13755733	      0.32477020	     -0.06575936	      0.53144400	      0.23888042	     -0.23888042	     -0.53144400	      0.06575936	     98.94049352	     76.89223088	     -1.72683738	    -21.91921280	     29.74317600	     47.21608515	      0.22292514	     -0.07492384	      0.26186513	     -0.03746192	     26.22361070	    -22.03714099	     -5.77799754	      0.34135764	      3.87233396	      5.40797710	     20.51030083	    -23.58099108	     -0.28422638	      3.44984724	     10.00253888	     12.52762456	     -2.66699387	     -4.54532849	      4.24614945	     22.25798398	    -10.68924668	    -13.32417885	      6.26711245	      5.33101801	      0.00088381	     -0.03100902	     -0.00484910	      0.01652832	     -0.01827988	     -0.00666320	      0.00406126	     -0.06715587	     -0.00385351	      0.00851478	     -0.18333756	     -0.00041804	     -0.00566592	      0.00168182	      0.00008051	      0.00007196	      0.00002878	      0.00014391	      0.00009210	      0.00027631	      0.00015543	     -0.00000224	     -0.00027358	     -0.00032829	      0.00252036	      0.00884261	      0.00615138	     -0.00824456	      0.01990656	     -0.01888133	      0.00252036	      0.00884261	      0.00615138	      0.00055533	      0.01845415	     -0.00969697	      0.00397530	      0.00491727	      0.01603413	      0.00000000	      0.00790811	      0.00000000	     -0.00721933	     -0.03336271	     -0.00652131	      0.01485911	     -0.00049160	     -0.00399309	     -0.00089708	      0.01503672	     -0.00615138	      0.00247764	      0.02170071	     -0.01794154	     -0.00602323	      0.01302897	     -0.00551061	     -0.01255907	      0.02751035	     -0.03079964	     -0.02358030	      0.01456682	     -0.00739020	     -0.01563477	      0.03178215	     -0.03848887
      1.30000000	     -0.32435329	      0.13738075	     -0.13738075	      0.32435329	     -0.06567494	      0.53076179	      0.23857377	     -0.23857377	     -0.53076179	      0.06567494	     99.08942553	     76.79352462	     -1.72943673	    -22.26546949	     29.66646712	     50.40204336	      0.25855875	     -0.09716113	      0.29618127	     -0.04858057	     24.56789251	    -21.60897378	     -6.83984113	     -0.11499640	      9.13829570	      6.03910362	     24.58837629	    -20.66527056	      5.84743626	      3.45209731	     12.21119553	     14.05369598	      2.72361591	     -4.69625716	     10.16142191	     24.10304538	     -3.74945455	    -13.50048339	     10.52411843	      5.15990473	      0.00088127	     -0.03100023	     -0.00484769	      0.01647008	     -0.01825904	     -0.00628374	      0.00382586	     -0.06730809	     -0.00411016	      0.00884420	     -0.18326332	     -0.00041952	     -0.00604823	      0.00182008	      0.00004243	      0.00009150	      0.00003660	      0.00018301	      0.00011712	      0.00035137	      0.00019765	      0.00000116	     -0.00027888	     -0.00033466	      0.00251712	      0.00883126	      0.00614349	     -0.00823398	      0.01988101	     -0.01885709	      0.00251712	      0.00883126	      0.00614349	      0.00055462	      0.01843046	     -0.00968452	      0.00397159	      0.00491095	      0.01602516	      0.00000000	      0.00788767	      0.00000000	     -0.00721006	     -0.03331989	     -0.00650435	      0.01504926	     -0.00050251	     -0.00412442	     -0.00089593	      0.01501741	     -0.00614349	      0.00247446	      0.02167286	     -0.01791850	     -0.00601550	      0.01301225	     -0.00550354	     -0.01254295	      0.02747504	     -0.03076010	     -0.02355003	      0.01454812	     -0.00738072	     -0.01561470	      0.03174135	     -0.03843946
      1.33333333	     -0.32657197	      0.13832047	     -0.13832047	      0.32657197	     -0.06612418	      0.53439238	      0.24020570	     -0.24020570	     -0.53439238	      0.06612418	     98.50298959	     77.31881765	     -1.71920149	    -19.75977107	     29.85635581	     49.71946857	      0.28296937	     -0.10022484	      0.31849005	     -0.05011242	     20.89866017	    -21.25031123	     -7.41637861	     -1.72204338	     13.43012740	      4.86015172	     27.69723946	    -19.39762772	     10.19527396	      2.13757163	     13.40239935	     15.42196894	      6.30268521	     -5.34745551	     12.97457470	     26.34716705	      0.01232707	    -13.56143462	     13.86423936	      5.26620269	      0.00088756	     -0.03102199	     -0.00485119	      0.01648456	     -0.01831063	     -0.00636627	      0.00387629	     -0.06727548	     -0.00405517	      0.00877335	     -0.18327947	     -0.00041986	     -0.00596632	      0.00179019	      0.00005106	      0.00009413	      0.00003765	      0.00018827	      0.00012049	      0.00036147	      0.00020333	      0.00000962	     -0.00027984	     -0.00033581	      0.00253434	      0.00889167	      0.00618551	     -0.00829030	      0.02001700	     -0.01898608	      0.00253434	      0.00889167	      0.00618551	      0.00055841	      0.01855653	     -0.00975077	      0.00399130	      0.00494455	      0.01607266	      0.00000000	      0.00799674	      0.00000000	     -0.00725938	     -0.03354780	     -0.00659487	      0.01363724	     -0.00042457	     -0.00321525	     -0.00090205	      0.01512014	     -0.00618551	      0.00249139	      0.02182111	     -0.01804107	     -0.00605665	      0.01310126	     -0.00554119	     -0.01262875	      0.02766298	     -0.03097051	     -0.02371112	      0.01464763	     -0.00743120	     -0.01572151	      0.03195847	     -0.03870240
      1.36666667	     -0.32336669	      0.13696287	     -0.13696287	      0.32336669	     -0.06547518	      0.52914735	      0.23784809	     -0.23784809	     -0.52914735	      0.06547518	     99.27260816	     76.55993875	     -1.73263387	    -23.38880396	     29.84342823	     56.67325082	      0.30136175	     -0.13282111	      0.33465490	     -0.06641055	     21.66967259	    -20.68089119	    -13.53830295	     -4.95496878	     18.63196763	      6.22946466	     31.50587550	    -10.87752688	     16.83817970	      2.48702019	     15.68228145	     17.49867852	     12.52413458	     -4.88372299	     19.31295276	     24.78048434	      8.77035441	    -13.39065116	     15.82294572	      5.25040416	      0.00088713	     -0.03102051	     -0.00485096	      0.01628843	     -0.01830711	     -0.00549578	      0.00336249	     -0.06760772	     -0.00461533	      0.00950166	     -0.18310886	     -0.00040039	     -0.00680077	      0.00210128	     -0.00004840	      0.00012126	      0.00004850	      0.00024252	      0.00015521	      0.00046564	      0.00026192	      0.00000775	     -0.00028119	     -0.00033743	      0.00250947	      0.00880440	      0.00612480	     -0.00820893	      0.01982053	     -0.01879973	      0.00250947	      0.00880440	      0.00612480	      0.00055293	      0.01837440	     -0.00965507	      0.00396279	      0.00489602	      0.01600383	      0.00000000	      0.00783941	      0.00000000	     -0.00718813	     -0.03321853	     -0.00646429	      0.01565568	     -0.00053821	     -0.00456215	     -0.00089320	      0.01497173	     -0.00612480	      0.00246693	      0.02160693	     -0.01786400	     -0.00599720	      0.01297267	     -0.00548680	     -0.01250480	      0.02739147	     -0.03066653	     -0.02347840	      0.01450387	     -0.00735827	     -0.01556720	      0.03164480	     -0.03832254
